<?xml version="1.0" encoding="utf-8"?>
<svg xmlns="http://www.w3.org/2000/svg" width="800" viewBox="-400 -125 800 250">
<style>
path, polyline, line { stroke-width: 1; stroke: #222222; fill: none; }
.error { stroke-width: 30; stroke-opacity: .1; }
.out { stroke-width: 3; stroke: #666666; }
circle.out { fill: #666666; }
line.out { stroke: #666666; stroke-width: 1; }
circle.in { fill: #222222; }
</style>
<style>@media (prefers-color-scheme: dark){
path, polyline, line { stroke-width: 1; stroke: #eeeeee; fill: none; }
.error { stroke-width: 30; stroke-opacity: .1; }
.out { stroke-width: 3; stroke: #888888; }
circle.out { fill: #888888; }
line.out { stroke: #888888; stroke-width: 1; }
circle.in { fill: #eeeeee; }
}</style>
<path class="error" d="M -374.5529891658442,100.27271956770575 C -300.97951987760416,88.64688068419247 -267.2697126568569,-33.714165239021796 -209.64580339741124,-73.8994898845946 C -145.27909549299795,-118.7870562914436 -80.88610880868437,61.97979664572934 -11.8518320082601,57.219553953929335 C 38.21882925894809,53.766943013137144 82.32281168809567,-19.5419996863911 129.15222328967687,-27.35885170626603 C 200.20864088120481,-39.21972038642381 279.6549587849835,9.296561226580446 357.4136633256531,2.3883744808004987"/>
<path class="out" d="M -374.5529891658442,100.27271956770575 C -300.97951987760416,88.64688068419247 -267.2697126568569,-33.714165239021796 -209.64580339741124,-73.8994898845946 C -145.27909549299795,-118.7870562914436 -80.88610880868437,61.97979664572934 -11.8518320082601,57.219553953929335 C 38.21882925894809,53.766943013137144 82.32281168809567,-19.5419996863911 129.15222328967687,-27.35885170626603 C 200.20864088120481,-39.21972038642381 279.6549587849835,9.296561226580446 357.4136633256531,2.3883744808004987"/>
<circle class="out" r="1.5" cx="-374.5529891658442" cy="100.27271956770575"/>
<circle class="out" r="1.5" cx="-300.97951987760416" cy="88.64688068419247"/>
<circle class="out" r="1.5" cx="-267.2697126568569" cy="-33.714165239021796"/>
<circle class="out" r="1.5" cx="-209.64580339741124" cy="-73.8994898845946"/>
<circle class="out" r="1.5" cx="-209.64580339741124" cy="-73.8994898845946"/>
<circle class="out" r="1.5" cx="-145.27909549299795" cy="-118.7870562914436"/>
<circle class="out" r="1.5" cx="-80.88610880868437" cy="61.97979664572934"/>
<circle class="out" r="1.5" cx="-11.8518320082601" cy="57.219553953929335"/>
<circle class="out" r="1.5" cx="-11.8518320082601" cy="57.219553953929335"/>
<circle class="out" r="1.5" cx="38.21882925894809" cy="53.766943013137144"/>
<circle class="out" r="1.5" cx="82.32281168809567" cy="-19.5419996863911"/>
<circle class="out" r="1.5" cx="129.15222328967687" cy="-27.35885170626603"/>
<circle class="out" r="1.5" cx="129.15222328967687" cy="-27.35885170626603"/>
<circle class="out" r="1.5" cx="200.20864088120481" cy="-39.21972038642381"/>
<circle class="out" r="1.5" cx="279.6549587849835" cy="9.296561226580446"/>
<circle class="out" r="1.5" cx="357.4136633256531" cy="2.3883744808004987"/>
<line class="out" x1="-374.5529891658442" y1="100.27271956770575" x2="-300.97951987760416" y2="88.64688068419247"/>
<line class="out" x1="-267.2697126568569" y1="-33.714165239021796" x2="-209.64580339741124" y2="-73.8994898845946"/>
<line class="out" x1="-209.64580339741124" y1="-73.8994898845946" x2="-145.27909549299795" y2="-118.7870562914436"/>
<line class="out" x1="-80.88610880868437" y1="61.97979664572934" x2="-11.8518320082601" y2="57.219553953929335"/>
<line class="out" x1="-11.8518320082601" y1="57.219553953929335" x2="38.21882925894809" y2="53.766943013137144"/>
<line class="out" x1="82.32281168809567" y1="-19.5419996863911" x2="129.15222328967687" y2="-27.35885170626603"/>
<line class="out" x1="129.15222328967687" y1="-27.35885170626603" x2="200.20864088120481" y2="-39.21972038642381"/>
<line class="out" x1="279.6549587849835" y1="9.296561226580446" x2="357.4136633256531" y2="2.3883744808004987"/>
<polyline class="in" points="-374.553,100.273 -356.825,97.4714 -336.246,86.2652 -332.648,73.1857 -310.419,56.4808 -301.695,30.727 -282.549,5.5513 -266.282,-13.8326 -249.591,-33.2252 -242.99,-51.2624 -217.441,-59.7379 -209.646,-73.8995 -194.82,-75.5132 -180.551,-67.709 -164.013,-75.2639 -148.908,-59.8876 -136.603,-44.6524 -118.08,-33.0101 -107.53,-10.1112 -97.6681,3.27729 -79.4197,13.3097 -54.8607,26.8317 -47.3828,36.5849 -26.3295,48.0649 -11.8518,57.2196 7.02394,45.765 18.1657,52.2613 27.388,42.4382 44.294,32.2713 57.0481,27.4178 76.6079,13.3552 96.2628,2.89196 105.46,-3.2568 119.124,-19.7238 129.152,-27.3589 159.666,-26.4912 165.657,-19.7682 182.126,-21.449 185.677,-20.4213 217.229,-18.3975 225.471,-14.918 238.467,-9.41917 252.509,-5.72105 273.262,0.0279528 284.616,1.24804 299.189,3.45198 314.917,4.26752 329.748,3.68367 349.025,3.13364 357.414,2.38837"/>
<circle class="in" r="1.5" cx="-374.5529891658442" cy="100.27271956770575"/>
<circle class="in" r="1.5" cx="-356.82496742923985" cy="97.47139557922112"/>
<circle class="in" r="1.5" cx="-336.24572762861834" cy="86.26522094805553"/>
<circle class="in" r="1.5" cx="-332.64780794157963" cy="73.18570857582449"/>
<circle class="in" r="1.5" cx="-310.41904091788143" cy="56.48076934240369"/>
<circle class="in" r="1.5" cx="-301.69457298803417" cy="30.726993397040996"/>
<circle class="in" r="1.5" cx="-282.54850152716705" cy="5.55129856656111"/>
<circle class="in" r="1.5" cx="-266.28176393108856" cy="-13.832606092737992"/>
<circle class="in" r="1.5" cx="-249.59079294421582" cy="-33.22518668274229"/>
<circle class="in" r="1.5" cx="-242.98974699761666" cy="-51.262363015278176"/>
<circle class="in" r="1.5" cx="-217.44088484292422" cy="-59.73794204812763"/>
<circle class="in" r="1.5" cx="-209.64580339741124" cy="-73.8994898845946"/>
<circle class="in" r="1.5" cx="-194.8198808407291" cy="-75.51320619315794"/>
<circle class="in" r="1.5" cx="-180.551162619893" cy="-67.70895751725067"/>
<circle class="in" r="1.5" cx="-164.01288816849674" cy="-75.26393114468533"/>
<circle class="in" r="1.5" cx="-148.90797468094794" cy="-59.88758425540428"/>
<circle class="in" r="1.5" cx="-136.60295728157078" cy="-44.652400089043375"/>
<circle class="in" r="1.5" cx="-118.08009220596995" cy="-33.01007405130044"/>
<circle class="in" r="1.5" cx="-107.52986309408834" cy="-10.1112134893235"/>
<circle class="in" r="1.5" cx="-97.66811079203232" cy="3.2772941755147422"/>
<circle class="in" r="1.5" cx="-79.4196793936181" cy="13.309706666320658"/>
<circle class="in" r="1.5" cx="-54.860683821410824" cy="26.831700592645227"/>
<circle class="in" r="1.5" cx="-47.38281854197676" cy="36.58490404645639"/>
<circle class="in" r="1.5" cx="-26.329486905324817" cy="48.064858305406275"/>
<circle class="in" r="1.5" cx="-11.8518320082601" cy="57.219553953929335"/>
<circle class="in" r="1.5" cx="7.0239447760146145" cy="45.764980088871226"/>
<circle class="in" r="1.5" cx="18.165697834385877" cy="52.26126524868881"/>
<circle class="in" r="1.5" cx="27.387987452234682" cy="42.43816739665565"/>
<circle class="in" r="1.5" cx="44.29396646349301" cy="32.27126767066913"/>
<circle class="in" r="1.5" cx="57.04811862949414" cy="27.4178314308273"/>
<circle class="in" r="1.5" cx="76.60792399062646" cy="13.355174366840206"/>
<circle class="in" r="1.5" cx="96.26277350879128" cy="2.891963565073536"/>
<circle class="in" r="1.5" cx="105.46014849604794" cy="-3.25680379529085"/>
<circle class="in" r="1.5" cx="119.12367317243788" cy="-19.723798486960675"/>
<circle class="in" r="1.5" cx="129.15222328967687" cy="-27.35885170626603"/>
<circle class="in" r="1.5" cx="159.6661165859378" cy="-26.491218145865407"/>
<circle class="in" r="1.5" cx="165.65695079668734" cy="-19.768181367779892"/>
<circle class="in" r="1.5" cx="182.1260263331042" cy="-21.449022374181908"/>
<circle class="in" r="1.5" cx="185.67746400209577" cy="-20.42130673100743"/>
<circle class="in" r="1.5" cx="217.229406151792" cy="-18.39753981059264"/>
<circle class="in" r="1.5" cx="225.4708631568282" cy="-14.918024346569409"/>
<circle class="in" r="1.5" cx="238.46658313370747" cy="-9.419173729919807"/>
<circle class="in" r="1.5" cx="252.50934064562588" cy="-5.7210473719037775"/>
<circle class="in" r="1.5" cx="273.2620058821603" cy="0.027952790297590013"/>
<circle class="in" r="1.5" cx="284.6160754340353" cy="1.2480444171766603"/>
<circle class="in" r="1.5" cx="299.18917510917913" cy="3.4519847571276574"/>
<circle class="in" r="1.5" cx="314.9165447216864" cy="4.267518382236869"/>
<circle class="in" r="1.5" cx="329.74763531928227" cy="3.683665557945507"/>
<circle class="in" r="1.5" cx="349.0249563441919" cy="3.1336383676654407"/>
<circle class="in" r="1.5" cx="357.4136633256531" cy="2.3883744808004987"/>
</svg>
